<?xml version="1.0" encoding="UTF-8" standalone="no"?>
<svg width="512px" height="512px" viewBox="0 0 512 512" version="1.1" xmlns="http://www.w3.org/2000/svg" xmlns:xlink="http://www.w3.org/1999/xlink">
    <!-- Generator: Sketch 39.1 (31720) - http://www.bohemiancoding.com/sketch -->
    <title>icon</title>
    <desc>Created with Sketch.</desc>
    <defs>
        <linearGradient x1="32.0539078%" y1="19.8977123%" x2="69.3166972%" y2="70.1411998%" id="linearGradient-1">
            <stop stop-color="#110000" offset="0%"></stop>
            <stop stop-color="#990000" offset="100%"></stop>
        </linearGradient>
    </defs>
    <g id="Page-1" stroke="none" stroke-width="1" fill="none" fill-rule="evenodd">
        <g id="icon">
            <g id="ic" transform="translate(113.000000, 103.000000)"></g>
            <rect id="Rectangle" fill="#990000" x="29" y="29" width="455" height="455" rx="110"></rect>
            <path d="M215.838938,484 C161.103912,439.461515 109.970357,397.703211 108.709311,396.168601 C100.649546,386.360403 88,364.759731 88,350.509063 C88,336.903615 91.1178684,325.112403 97.3536989,315.135074 C103.589529,305.157746 113.906839,295.577386 128.305939,286.393709 C139.643812,279.13747 146.956631,273.638683 150.244614,269.897185 C153.532598,266.155687 155.176565,261.790671 155.176565,256.802007 L155.176565,248.128577 L193.339916,248.128577 C168.983273,227.776789 153.184841,214.528257 152.965691,214.219075 C149.209244,208.919406 143.782059,196.81139 143.782059,188.434971 C143.782059,178.230885 146.843239,170.294493 152.96569,164.625556 C159.088142,158.956619 167.704797,156.122193 178.815913,156.122193 C190.267165,156.122193 199.110574,158.928275 205.346404,164.540522 C206.189201,165.299039 250.313534,202.44894 305.310836,248.808846 C305.446042,238.142604 307.711439,229.100781 312.10709,221.683119 C316.64224,214.030054 324.692009,206.575514 336.25664,199.319275 C345.440318,193.53696 352.04453,188.321616 356.069475,183.673088 C360.09442,179.02456 362.106863,173.695839 362.106863,167.686766 C362.106863,162.92486 359.952699,159.155073 355.644307,156.377294 C351.335915,153.599515 345.723752,152.210646 338.807649,152.210646 C321.68746,152.210646 301.676413,158.276318 278.773909,170.407843 L255.134561,124.14955 C283.365866,108.049769 312.843895,100 343.569532,100 C368.85299,100 388.693971,105.555475 403.09307,116.666591 C406.614448,119.383874 444.314226,156.950858 484,197.175142 L484,374.002269 C484,434.752338 434.752858,484 374.002269,484 L215.838938,484 Z" id="Combined-Shape" fill="url(#linearGradient-1)" opacity="0.260960821"></path>
            <path d="M207.387211,248.128577 L207.387211,262.754361 C207.387211,273.865477 205.119671,283.247426 200.584521,290.900491 C196.049372,298.553555 187.999602,306.008095 176.434971,313.264335 C169.972383,317.345969 164.870417,321.087411 161.128919,324.488773 C157.38742,327.890135 154.72306,331.036348 153.135758,333.927506 C151.548455,336.818663 150.754816,340.475073 150.754816,344.896844 C150.754816,349.65875 152.880636,353.400193 157.132338,356.121282 C161.384041,358.842372 167.024548,360.202896 174.05403,360.202896 C190.834083,360.202896 210.788441,354.193913 233.917703,342.175767 L257.557051,388.43406 C230.006018,404.420462 200.527989,412.413543 169.122079,412.413543 C143.838621,412.413543 123.99764,406.858068 109.598541,395.746952 C95.1994417,384.635836 88,369.55669 88,350.509063 C88,336.903615 91.1178684,325.112403 97.3536989,315.135074 C103.589529,305.157746 113.906839,295.577386 128.305939,286.393709 C139.643812,279.13747 146.956631,273.638683 150.244614,269.897185 C153.532598,266.155687 155.176565,261.790671 155.176565,256.802007 L155.176565,248.128577 L207.387211,248.128577 Z M214.700103,188.434971 C214.700103,198.979194 211.695612,207.085652 205.686539,212.754588 C199.677466,218.423525 190.72068,221.257951 178.815913,221.257951 C167.364661,221.257951 158.662973,218.423525 152.71059,212.754588 C146.758206,207.085652 143.782059,198.979194 143.782059,188.434971 C143.782059,178.230885 146.843239,170.294493 152.96569,164.625556 C159.088142,158.956619 167.704797,156.122193 178.815913,156.122193 C190.267165,156.122193 199.110574,158.928275 205.346404,164.540522 C211.582235,170.15277 214.700103,178.117506 214.700103,188.434971 L214.700103,188.434971 Z M305.3044,264.455033 L305.3044,249.829249 C305.3044,238.718133 307.571941,229.336184 312.10709,221.683119 C316.64224,214.030054 324.692009,206.575514 336.25664,199.319275 C345.440318,193.53696 352.04453,188.321616 356.069475,183.673088 C360.09442,179.02456 362.106863,173.695839 362.106863,167.686766 C362.106863,162.92486 359.952699,159.155073 355.644307,156.377294 C351.335915,153.599515 345.723752,152.210646 338.807649,152.210646 C321.68746,152.210646 301.676413,158.276318 278.773909,170.407843 L255.134561,124.14955 C283.365866,108.049769 312.843895,100 343.569532,100 C368.85299,100 388.693971,105.555475 403.09307,116.666591 C417.49217,127.777707 424.691611,142.913541 424.691611,162.074547 C424.691611,175.793374 421.48871,187.669618 415.082812,197.703637 C408.676913,207.737655 398.444636,217.232981 384.385673,226.189901 C372.480905,233.899655 365.026365,239.540163 362.021829,243.111593 C359.017292,246.683023 357.515047,250.906318 357.515047,255.781603 L357.515047,264.455033 L305.3044,264.455033 Z M297.991508,323.978571 C297.991508,313.547728 301.024344,305.497958 307.090106,299.829022 C313.155869,294.160085 322.08431,291.325659 333.875699,291.325659 C345.213572,291.325659 353.91526,294.188429 359.981022,299.914055 C366.046784,305.639681 369.07962,313.661107 369.07962,323.978571 C369.07962,334.296036 365.933407,342.289117 359.640887,347.958054 C353.348368,353.626991 344.760057,356.461417 333.875699,356.461417 C322.651204,356.461417 313.864484,353.655335 307.515275,348.043088 C301.166065,342.43084 297.991508,334.409415 297.991508,323.978571 L297.991508,323.978571 Z" id="¿?" fill="#FFFFFF"></path>
        </g>
    </g>
</svg>