<?xml version="1.0" encoding="UTF-8" standalone="no"?>
<svg width="144px" height="144px" viewBox="0 0 144 144" version="1.1" xmlns="http://www.w3.org/2000/svg" xmlns:xlink="http://www.w3.org/1999/xlink">
    <!-- Generator: Sketch 39.1 (31720) - http://www.bohemiancoding.com/sketch -->
    <title>icon</title>
    <desc>Created with Sketch.</desc>
    <defs></defs>
    <g id="Page-1" stroke="none" stroke-width="1" fill="none" fill-rule="evenodd">
        <g id="icon">
            <path d="M26.2199993,119.002141 L26.2199993,130.47 C26.2199993,132.42 28.1949993,134 30.6324993,134 L46.8074993,134 C49.2449993,134 51.2199993,132.42 51.2199993,130.47 L51.2199993,119.002141 L94,119.002141 L94,130.47 C94,132.42 95.975,134 98.4125,134 L114.5875,134 C117.025,134 119,132.42 119,130.47 L119,119.000254 C126.202673,118.877878 132,112.817295 132,105.352471 L132,75.3967272 L132,39.7195818 C132,39.7195818 132,10 103.209677,10 C80.89812,10 58.5865625,10 41.7903226,10 C13,10 13,39.7195818 13,39.7195818 L13,75.3967272 L13,105.352471 C13,112.893149 18.9157442,119.000902 26.2199993,119.002141 Z" id="Combined-Shape" fill="#990000"></path>
            <path d="M60.6217175,64.1972656 L60.6217175,67.6826172 C60.6217175,70.3304169 60.0813583,72.566153 59.0006237,74.3898926 C57.9198891,76.2136322 56.001614,77.990063 53.2457409,79.7192383 C51.7056941,80.6918994 50.489886,81.583492 49.59828,82.394043 C48.7066739,83.2045939 48.0717519,83.9543423 47.6934948,84.6433105 C47.3152377,85.3322788 47.126112,86.203608 47.126112,87.2573242 C47.126112,88.3920955 47.6326987,89.2836882 48.6458874,89.9321289 C49.659076,90.5805696 51.0032195,90.9047852 52.6783581,90.9047852 C56.677076,90.9047852 61.4322368,89.4728333 66.9439831,86.6088867 L72.5772839,97.6323242 C66.0118213,101.441914 58.987152,103.34668 51.5030651,103.34668 C45.4779699,103.34668 40.7498271,102.0228 37.3184948,99.375 C33.8871625,96.7272003 32.1715221,93.1338118 32.1715221,88.5947266 C32.1715221,85.3525229 32.914516,82.5426551 34.400526,80.1650391 C35.8865361,77.787423 38.3451703,75.5044055 41.7765026,73.315918 C44.478339,71.5867427 46.2209974,70.2763716 47.00453,69.3847656 C47.7880625,68.4931596 48.1798229,67.4529682 48.1798229,66.2641602 L48.1798229,64.1972656 L60.6217175,64.1972656 Z M62.3643932,49.972168 C62.3643932,52.4848758 61.6484173,54.4166599 60.216444,55.7675781 C58.7844707,57.1184963 56.650052,57.7939453 53.8131237,57.7939453 C51.0842689,57.7939453 49.0106406,57.1184963 47.5921764,55.7675781 C46.1737123,54.4166599 45.4644909,52.4848758 45.4644909,49.972168 C45.4644909,47.5405152 46.1939758,45.6492581 47.6529675,44.2983398 C49.1119591,42.9474216 51.165324,42.2719727 53.8131237,42.2719727 C56.5419785,42.2719727 58.6493793,42.9406671 60.1353893,44.2780762 C61.6213994,45.6154852 62.3643932,47.5134968 62.3643932,49.972168 L62.3643932,49.972168 Z M83.9555664,68.0878906 L83.9555664,64.6025391 C83.9555664,61.9547394 84.4959256,59.7190033 85.5766602,57.8952637 C86.6573947,56.0715241 88.5756698,54.2950933 91.331543,52.565918 C93.5200305,51.1879814 95.0938266,49.9451553 96.0529785,48.8374023 C97.0121304,47.7296494 97.4916992,46.4598053 97.4916992,45.027832 C97.4916992,43.8930607 96.978358,42.9947136 95.9516602,42.3327637 C94.9249623,41.6708137 93.5875733,41.3398438 91.9394531,41.3398438 C87.8596801,41.3398438 83.0910104,42.7853046 77.6333008,45.6762695 L72,34.652832 C78.7275727,30.8162243 85.752242,28.8979492 93.0742188,28.8979492 C99.099314,28.8979492 103.827457,30.2218292 107.258789,32.8696289 C110.690121,35.5174286 112.405762,39.1243261 112.405762,43.6904297 C112.405762,46.9596518 111.642504,49.789783 110.115967,52.1809082 C108.589429,54.5720334 106.151058,56.8347875 102.800781,58.9692383 C99.963853,60.8064871 98.1874222,62.1506305 97.4714355,63.001709 C96.7554489,63.8527875 96.3974609,64.8592064 96.3974609,66.0209961 L96.3974609,68.0878906 L83.9555664,68.0878906 Z M82.2128906,82.2724609 C82.2128906,79.7867714 82.935621,77.8684963 84.3811035,76.5175781 C85.826586,75.1666599 87.9542503,74.4912109 90.7641602,74.4912109 C93.4659966,74.4912109 95.5396249,75.1734144 96.9851074,76.5378418 C98.4305899,77.9022692 99.1533203,79.8137898 99.1533203,82.2724609 C99.1533203,84.7311321 98.403572,86.6358982 96.9040527,87.9868164 C95.4045335,89.3377346 93.3579231,90.0131836 90.7641602,90.0131836 C88.0893421,90.0131836 85.9954503,89.3444891 84.4824219,88.0070801 C82.9693935,86.669671 82.2128906,84.7581504 82.2128906,82.2724609 L82.2128906,82.2724609 Z" id="¿?" fill="#FFFFFF"></path>
        </g>
    </g>
</svg>